<svg width="430" height="430" viewBox="0 0 430 430" fill="none" xmlns="http://www.w3.org/2000/svg">
<path d="M285 100.673V250.327C285 289.113 253.69 320.5 215 320.5C176.31 320.5 145 289.113 145 250.327V100.673C145 61.8868 176.31 30.5 215 30.5C253.69 30.5 285 61.8868 285 100.673Z" fill="#3A3347"/>
<path d="M285 100.673V250.327C285 289.113 253.69 320.5 215 320.5C176.31 320.5 145 289.113 145 250.327V100.673C145 61.8868 176.31 30.5 215 30.5C253.69 30.5 285 61.8868 285 100.673Z" fill="#3A3347"/>
<path d="M215 350.5V400.5" stroke="#3A3347" stroke-width="7" stroke-linecap="round" stroke-linejoin="round"/>
<path d="M250 400.5L180 400.5" stroke="#3A3347" stroke-width="7" stroke-linecap="round" stroke-linejoin="round"/>
<path d="M110 220.5V245.5C110 303.49 157.01 350.5 215 350.5V350.5C272.99 350.5 320 303.49 320 245.5V220.5" stroke="#3A3347" stroke-width="7" stroke-linecap="round" stroke-linejoin="round"/>
<g style="mix-blend-mode:multiply" opacity="0.15">
<mask id="mask0_2160_7042" style="mask-type:alpha" maskUnits="userSpaceOnUse" x="85" y="20" width="273" height="256">
<circle cx="90" cy="25.5" r="5" fill="#D9D9D9"/>
<circle cx="115" cy="25.5" r="5" fill="#D9D9D9"/>
<circle cx="140" cy="25.5" r="5" fill="#D9D9D9"/>
<circle cx="165" cy="25.5" r="5" fill="#D9D9D9"/>
<circle cx="190" cy="25.5" r="5" fill="#D9D9D9"/>
<circle cx="215" cy="25.5" r="5" fill="#D9D9D9"/>
<circle cx="240" cy="25.5" r="5" fill="#D9D9D9"/>
<circle cx="265" cy="25.5" r="5" fill="#D9D9D9"/>
<circle cx="290" cy="25.5" r="5" fill="#D9D9D9"/>
<circle cx="315" cy="25.5" r="5" fill="#D9D9D9"/>
<circle cx="340" cy="25.5" r="5" fill="#D9D9D9"/>
<circle cx="90" cy="65.5" r="5" fill="#D9D9D9"/>
<circle cx="115" cy="65.5" r="5" fill="#D9D9D9"/>
<circle cx="140" cy="65.5" r="5" fill="#D9D9D9"/>
<circle cx="165" cy="65.5" r="5" fill="#D9D9D9"/>
<circle cx="190" cy="65.5" r="5" fill="#D9D9D9"/>
<circle cx="215" cy="65.5" r="5" fill="#D9D9D9"/>
<circle cx="240" cy="65.5" r="5" fill="#D9D9D9"/>
<circle cx="265" cy="65.5" r="5" fill="#D9D9D9"/>
<circle cx="290" cy="65.5" r="5" fill="#D9D9D9"/>
<circle cx="315" cy="65.5" r="5" fill="#D9D9D9"/>
<circle cx="340" cy="65.5" r="5" fill="#D9D9D9"/>
<circle cx="102.5" cy="45.5" r="5" fill="#D9D9D9"/>
<circle cx="127.5" cy="45.5" r="5" fill="#D9D9D9"/>
<circle cx="152.5" cy="45.5" r="5" fill="#D9D9D9"/>
<circle cx="177.5" cy="45.5" r="5" fill="#D9D9D9"/>
<circle cx="202.5" cy="45.5" r="5" fill="#D9D9D9"/>
<circle cx="227.5" cy="45.5" r="5" fill="#D9D9D9"/>
<circle cx="252.5" cy="45.5" r="5" fill="#D9D9D9"/>
<circle cx="277.5" cy="45.5" r="5" fill="#D9D9D9"/>
<circle cx="302.5" cy="45.5" r="5" fill="#D9D9D9"/>
<circle cx="327.5" cy="45.5" r="5" fill="#D9D9D9"/>
<circle cx="352.5" cy="45.5" r="5" fill="#D9D9D9"/>
<circle cx="90" cy="105.5" r="5" fill="#D9D9D9"/>
<circle cx="115" cy="105.5" r="5" fill="#D9D9D9"/>
<circle cx="140" cy="105.5" r="5" fill="#D9D9D9"/>
<circle cx="165" cy="105.5" r="5" fill="#D9D9D9"/>
<circle cx="190" cy="105.5" r="5" fill="#D9D9D9"/>
<circle cx="215" cy="105.5" r="5" fill="#D9D9D9"/>
<circle cx="240" cy="105.5" r="5" fill="#D9D9D9"/>
<circle cx="265" cy="105.5" r="5" fill="#D9D9D9"/>
<circle cx="290" cy="105.5" r="5" fill="#D9D9D9"/>
<circle cx="315" cy="105.5" r="5" fill="#D9D9D9"/>
<circle cx="340" cy="105.5" r="5" fill="#D9D9D9"/>
<circle cx="102.5" cy="85.5" r="5" fill="#D9D9D9"/>
<circle cx="127.5" cy="85.5" r="5" fill="#D9D9D9"/>
<circle cx="152.5" cy="85.5" r="5" fill="#D9D9D9"/>
<circle cx="177.5" cy="85.5" r="5" fill="#D9D9D9"/>
<circle cx="202.5" cy="85.5" r="5" fill="#D9D9D9"/>
<circle cx="227.5" cy="85.5" r="5" fill="#D9D9D9"/>
<circle cx="252.5" cy="85.5" r="5" fill="#D9D9D9"/>
<circle cx="277.5" cy="85.5" r="5" fill="#D9D9D9"/>
<circle cx="302.5" cy="85.5" r="5" fill="#D9D9D9"/>
<circle cx="327.5" cy="85.5" r="5" fill="#D9D9D9"/>
<circle cx="352.5" cy="85.5" r="5" fill="#D9D9D9"/>
<circle cx="90" cy="145.5" r="5" fill="#D9D9D9"/>
<circle cx="115" cy="145.5" r="5" fill="#D9D9D9"/>
<circle cx="140" cy="145.5" r="5" fill="#D9D9D9"/>
<circle cx="165" cy="145.5" r="5" fill="#D9D9D9"/>
<circle cx="190" cy="145.5" r="5" fill="#D9D9D9"/>
<circle cx="215" cy="145.5" r="5" fill="#D9D9D9"/>
<circle cx="240" cy="145.5" r="5" fill="#D9D9D9"/>
<circle cx="265" cy="145.5" r="5" fill="#D9D9D9"/>
<circle cx="290" cy="145.5" r="5" fill="#D9D9D9"/>
<circle cx="315" cy="145.5" r="5" fill="#D9D9D9"/>
<circle cx="340" cy="145.5" r="5" fill="#D9D9D9"/>
<circle cx="102.5" cy="125.5" r="5" fill="#D9D9D9"/>
<circle cx="127.5" cy="125.5" r="5" fill="#D9D9D9"/>
<circle cx="152.5" cy="125.5" r="5" fill="#D9D9D9"/>
<circle cx="177.5" cy="125.5" r="5" fill="#D9D9D9"/>
<circle cx="202.5" cy="125.5" r="5" fill="#D9D9D9"/>
<circle cx="227.5" cy="125.5" r="5" fill="#D9D9D9"/>
<circle cx="252.5" cy="125.5" r="5" fill="#D9D9D9"/>
<circle cx="277.5" cy="125.5" r="5" fill="#D9D9D9"/>
<circle cx="302.5" cy="125.5" r="5" fill="#D9D9D9"/>
<circle cx="327.5" cy="125.5" r="5" fill="#D9D9D9"/>
<circle cx="352.5" cy="125.5" r="5" fill="#D9D9D9"/>
<circle cx="90" cy="185.5" r="5" fill="#D9D9D9"/>
<circle cx="115" cy="185.5" r="5" fill="#D9D9D9"/>
<circle cx="140" cy="185.5" r="5" fill="#D9D9D9"/>
<circle cx="165" cy="185.5" r="5" fill="#D9D9D9"/>
<circle cx="190" cy="185.5" r="5" fill="#D9D9D9"/>
<circle cx="215" cy="185.5" r="5" fill="#D9D9D9"/>
<circle cx="240" cy="185.5" r="5" fill="#D9D9D9"/>
<circle cx="265" cy="185.5" r="5" fill="#D9D9D9"/>
<circle cx="290" cy="185.5" r="5" fill="#D9D9D9"/>
<circle cx="315" cy="185.5" r="5" fill="#D9D9D9"/>
<circle cx="340" cy="185.5" r="5" fill="#D9D9D9"/>
<circle cx="102.5" cy="165.5" r="5" fill="#D9D9D9"/>
<circle cx="127.5" cy="165.5" r="5" fill="#D9D9D9"/>
<circle cx="152.5" cy="165.5" r="5" fill="#D9D9D9"/>
<circle cx="177.5" cy="165.5" r="5" fill="#D9D9D9"/>
<circle cx="202.5" cy="165.5" r="5" fill="#D9D9D9"/>
<circle cx="227.5" cy="165.5" r="5" fill="#D9D9D9"/>
<circle cx="252.5" cy="165.5" r="5" fill="#D9D9D9"/>
<circle cx="277.5" cy="165.5" r="5" fill="#D9D9D9"/>
<circle cx="302.5" cy="165.5" r="5" fill="#D9D9D9"/>
<circle cx="327.5" cy="165.5" r="5" fill="#D9D9D9"/>
<circle cx="352.5" cy="165.5" r="5" fill="#D9D9D9"/>
<circle cx="90" cy="230.5" r="5" fill="#D9D9D9"/>
<circle cx="115" cy="230.5" r="5" fill="#D9D9D9"/>
<circle cx="140" cy="230.5" r="5" fill="#D9D9D9"/>
<circle cx="165" cy="230.5" r="5" fill="#D9D9D9"/>
<circle cx="190" cy="230.5" r="5" fill="#D9D9D9"/>
<circle cx="215" cy="230.5" r="5" fill="#D9D9D9"/>
<circle cx="240" cy="230.5" r="5" fill="#D9D9D9"/>
<circle cx="265" cy="230.5" r="5" fill="#D9D9D9"/>
<circle cx="290" cy="230.5" r="5" fill="#D9D9D9"/>
<circle cx="315" cy="230.5" r="5" fill="#D9D9D9"/>
<circle cx="340" cy="230.5" r="5" fill="#D9D9D9"/>
<circle cx="102.5" cy="210.5" r="5" fill="#D9D9D9"/>
<circle cx="127.5" cy="210.5" r="5" fill="#D9D9D9"/>
<circle cx="152.5" cy="210.5" r="5" fill="#D9D9D9"/>
<circle cx="177.5" cy="210.5" r="5" fill="#D9D9D9"/>
<circle cx="202.5" cy="210.5" r="5" fill="#D9D9D9"/>
<circle cx="227.5" cy="210.5" r="5" fill="#D9D9D9"/>
<circle cx="252.5" cy="210.5" r="5" fill="#D9D9D9"/>
<circle cx="277.5" cy="210.5" r="5" fill="#D9D9D9"/>
<circle cx="302.5" cy="210.5" r="5" fill="#D9D9D9"/>
<circle cx="327.5" cy="210.5" r="5" fill="#D9D9D9"/>
<circle cx="352.5" cy="210.5" r="5" fill="#D9D9D9"/>
<circle cx="90" cy="270.5" r="5" fill="#D9D9D9"/>
<circle cx="115" cy="270.5" r="5" fill="#D9D9D9"/>
<circle cx="140" cy="270.5" r="5" fill="#D9D9D9"/>
<circle cx="165" cy="270.5" r="5" fill="#D9D9D9"/>
<circle cx="190" cy="270.5" r="5" fill="#D9D9D9"/>
<circle cx="215" cy="270.5" r="5" fill="#D9D9D9"/>
<circle cx="240" cy="270.5" r="5" fill="#D9D9D9"/>
<circle cx="265" cy="270.5" r="5" fill="#D9D9D9"/>
<circle cx="290" cy="270.5" r="5" fill="#D9D9D9"/>
<circle cx="315" cy="270.5" r="5" fill="#D9D9D9"/>
<circle cx="340" cy="270.5" r="5" fill="#D9D9D9"/>
<circle cx="102.5" cy="250.5" r="5" fill="#D9D9D9"/>
<circle cx="127.5" cy="250.5" r="5" fill="#D9D9D9"/>
<circle cx="152.5" cy="250.5" r="5" fill="#D9D9D9"/>
<circle cx="177.5" cy="250.5" r="5" fill="#D9D9D9"/>
<circle cx="202.5" cy="250.5" r="5" fill="#D9D9D9"/>
<circle cx="227.5" cy="250.5" r="5" fill="#D9D9D9"/>
<circle cx="252.5" cy="250.5" r="5" fill="#D9D9D9"/>
<circle cx="277.5" cy="250.5" r="5" fill="#D9D9D9"/>
<circle cx="302.5" cy="250.5" r="5" fill="#D9D9D9"/>
<circle cx="327.5" cy="250.5" r="5" fill="#D9D9D9"/>
<circle cx="352.5" cy="250.5" r="5" fill="#D9D9D9"/>
</mask>
<g mask="url(#mask0_2160_7042)">
<path d="M285 100.673V250.327C285 289.113 253.69 320.5 215 320.5C176.31 320.5 145 289.113 145 250.327V100.673C145 61.8868 176.31 30.5 215 30.5C253.69 30.5 285 61.8868 285 100.673Z" fill="#3A3347"/>
</g>
</g>
<path d="M145 250.5H285C285 289.16 253.66 320.5 215 320.5C176.34 320.5 145 289.16 145 250.5Z" fill="#646E78"/>
<g style="mix-blend-mode:multiply" opacity="0.5">
<path d="M215 320.5V250.5H145C145 289.16 176.34 320.5 215 320.5Z" fill="#646E78"/>
</g>
<g style="mix-blend-mode:multiply" opacity="0.3">
<path d="M145 100.5C145 61.8401 176.34 30.5 215 30.5V250.5H145V100.5Z" fill="#3A3347"/>
</g>
<path fill-rule="evenodd" clip-rule="evenodd" d="M252 215.5C252 213.567 253.567 212 255.5 212H285V219H255.5C253.567 219 252 217.433 252 215.5Z" fill="#EBE6EF"/>
<path fill-rule="evenodd" clip-rule="evenodd" d="M145 212H174.5C176.433 212 178 213.567 178 215.5C178 217.433 176.433 219 174.5 219H145V212Z" fill="#EBE6EF"/>
<path fill-rule="evenodd" clip-rule="evenodd" d="M145 182H164.5C166.433 182 168 183.567 168 185.5C168 187.433 166.433 189 164.5 189H145V182Z" fill="#EBE6EF"/>
<path fill-rule="evenodd" clip-rule="evenodd" d="M261.5 185.5C261.5 183.567 263.067 182 265 182H285V189H265C263.067 189 261.5 187.433 261.5 185.5Z" fill="#EBE6EF"/>
</svg>
